<?xml version="1.0" encoding="UTF-8"?>
<svg id="Camada_1" data-name="Camada 1" xmlns="http://www.w3.org/2000/svg" viewBox="0 0 500 500">
  <path d="m375.82758,150.3598h-24.66054c-2.95842,0-5.55033,1.98089-6.32726,4.83541l-8.78196,32.26808h-22.44847l-56.02576,62.76027c-2.20904,2.47469-5.3121,3.96896-8.6243,4.15328-.23187.01287-.46328.01931-.6944.01931-3.06882,0-6.04027-1.13095-8.3373-3.19029l-71.10166-63.74257h-22.56842c-1.92356,0-3.28721,1.87714-2.69247,3.7065l27.78086,85.45636h129.93954c5.02434,0,9.40578,3.87173,9.55662,8.89388.15599,5.19662-4.01023,9.45826-9.17179,9.45826h-112.89434c-5.99029,0-10.23678,5.84565-8.38486,11.54258,1.18085,3.63206,4.56575,6.091,8.38486,6.091h12.84187c0,7.69326,6.2367,13.92996,13.92988,13.92996s13.92988-6.2367,13.92988-13.92996h42.01107c0,7.69326,6.2367,13.92996,13.92988,13.92996s13.93003-6.2367,13.93003-13.92996h20.78434l37.69309-146.12329h18.33994c4.53622,0,8.19767-3.74542,8.06045-8.31246-.13237-4.4137-3.98297-7.81632-8.39879-7.81632Z" style="fill: #414043; stroke-width: 0px;"/>
  <path d="m227.11904,154.29674l-76.35666-.2948,92.05835,82.53035c2.64264,2.36913,6.70649,2.14301,9.07017-.50463l137.96561-154.54995-19.60515.73703-115.71448,97.73082-27.41783-25.64883Z" style="fill: #39b54a; stroke-width: 0px;"/>
  <path d="m250.6899,85.32642c26.66452.25875,50.4306,8.94204,69.69863,23.17482l21.75483-20.69362c-18.07657-12.84202-39.44718-21.85713-63.07695-25.48496-67.05523-11.49033-136.71842,27.11085-160.21099,91.27013-16.76123,44.50468-9.5492,88.67254,12.99089,123.03336h11.24816c-3.56361-6.12114-6.64122-12.56578-9.12817-19.30415-31.86667-82.90095,27.42919-172.29356,116.72359-171.99558Z" style="fill: #a7a9ac; stroke-width: 0px;"/>
  <g>
    <path d="m106.65899,372.53034c0,5.96106-1.65141,10.53847-4.92999,13.76253-3.27737,3.22406-7.85599,4.82216-13.78919,4.82216h-11.54046v-35.65124h12.35344c5.71631,0,10.10472,1.4624,13.21973,4.3884,3.11623,2.92601,4.68646,7.15206,4.68646,12.67815Zm-9.99568.35257c0-6.52808-2.54678-9.64431-7.82934-9.64431h-2.79031v19.96591h2.13968c5.85201,0,8.47997-3.35855,8.47997-10.32159Z" style="fill: #404042; stroke-width: 0px;"/>
    <path d="m112.28928,356.62934c0-2.89935,1.49026-4.25392,5.06569-4.25392,3.54877,0,5.09355,1.43574,5.09355,4.25392,0,2.79031-1.70714,4.17153-5.09355,4.17153s-5.06569-1.38122-5.06569-4.17153Zm9.78001,34.48569h-9.53648v-27.63289h9.53648v27.63289Z" style="fill: #404042; stroke-width: 0px;"/>
    <path d="m135.96388,391.11503l-10.53847-27.63289h9.94236l4.68646,16.33596c.05452.29805.43375,1.7338.43375,2.81817h.16235c0-.84085.16235-1.76166.46041-2.76365l4.90333-16.39048h9.91571l-10.53847,27.63289h-9.42744Z" style="fill: #404042; stroke-width: 0px;"/>
    <path d="m172.56017,391.60209c-4.60528,0-8.18191-1.21887-10.72869-3.6566-2.54557-2.4656-3.81895-5.93319-3.81895-10.45729,0-4.6598,1.16434-8.23522,3.5209-10.72748,2.35777-2.52012,5.74418-3.76564,10.10472-3.76564,8.34427,0,13.05859,4.49745,13.05859,12.6515v4.22605h-17.0399c.10783,3.11502,2.35656,4.95785,6.04102,4.95785,1.67927,0,3.22406-.16357,4.60528-.46041,1.40909-.32592,2.92601-.8675,4.57863-1.65262v6.854c-1.49026.78511-3.03505,1.30004-4.63315,1.5981s-3.49425.43254-5.68845.43254Zm-.56945-22.10559c-2.24872,0-3.90134,1.35457-4.14487,4.3884h8.18191c-.02787-2.68126-1.57144-4.3884-4.03704-4.3884Z" style="fill: #404042; stroke-width: 0px;"/>
    <path d="m206.74296,362.99508c.83964,0,1.62475.08118,2.35656.21688l.54158.08118-.83964,8.99368c-.78511-.18901-1.86949-.29805-3.25071-.29805-4.14487,0-5.95985,1.97854-5.95985,5.55396v13.57231h-9.53648v-27.63289h7.09875l1.48905,4.41627h.46162c.78511-1.4624,1.89615-2.65461,3.33189-3.54877s2.87148-1.35457,4.30723-1.35457Z" style="fill: #404042; stroke-width: 0px;"/>
    <path d="m234.83383,382.63627c0,5.93198-4.14487,8.96582-11.70403,8.96582-2.03185,0-3.81895-.10783-5.33587-.32471s-3.06171-.62276-4.63315-1.21887v-7.61246c1.49026.65063,3.08836,1.19221,4.84881,1.5981,1.76166.4071,3.35976.62276,4.74098.62276,2.05971,0,3.08836-.46041,3.08836-1.40788,0-.48827-.29805-.92081-.86629-1.30004-.56945-.38044-2.24872-1.11103-5.03903-2.22207-2.51891-1.05651-4.30723-2.22086-5.30922-3.54877-1.0032-1.32791-1.51813-3.00718-1.51813-5.03903,0-2.57343,1.0032-4.55076,2.98053-5.9865s4.7955-2.16755,8.39758-2.16755c3.65781,0,6.665.81298,10.13259,2.35656l-2.6013,6.15007c-1.27339-.56945-2.60009-1.05651-4.00917-1.46361-1.40909-.40588-2.57343-.59489-3.46759-.59489-1.54357,0-2.3299.37923-2.3299,1.13769,0,.46041.2714.86629.81298,1.21887.54158.32471,2.11303,1.00199,4.71432,2.03185,1.9228.78511,3.35855,1.57144,4.30723,2.35656,1.9228,1.51692,2.79031,3.49425,2.79031,6.44812Z" style="fill: #404042; stroke-width: 0px;"/>
    <path d="m239.92254,356.62934c0-2.89935,1.49026-4.25392,5.06569-4.25392,3.54877,0,5.09355,1.43574,5.09355,4.25392,0,2.79031-1.70714,4.17153-5.09355,4.17153s-5.06569-1.38122-5.06569-4.17153Zm9.78001,34.48569h-9.53648v-27.63289h9.53648v27.63289Z" style="fill: #404042; stroke-width: 0px;"/>
    <path d="m294.64069,380.27851c.08239,6.63713-5.47157,11.40597-13.97819,11.32359-2.38442,0-4.3884-.16235-5.9865-.48706-1.59931-.35257-3.27858-.92081-5.01238-1.76045v-8.5878c1.84284.94747,3.73899,1.70593,5.71631,2.22086s3.82017.78633,5.47278.78633c2.84362,0,4.14487-1.11103,4.14487-2.65582,0-.48706-.1357-.92081-.4071-1.27218-.27019-.35257-.70394-.7318-1.30004-1.11103-.56945-.37923-2.16755-1.13769-4.74098-2.30325-2.30325-1.05651-4.0637-2.0585-5.22804-3.06049-2.30325-1.97854-3.41428-4.47079-3.41428-7.96504,0-3.27858,1.19221-5.85201,3.57663-7.69364,2.41108-1.84284,5.68845-2.76365,9.86119-2.76365,3.68325,0,7.4489.8675,11.29572,2.57343l-2.95266,7.42345c-3.33189-1.51692-6.23003-2.27538-8.64111-2.27538-2.49226,0-3.57663.97534-3.57663,2.27538,0,.70394.35257,1.3267,1.08438,1.89615.73059.54158,2.68126,1.54357,5.87867,3.00718,3.06049,1.38122,5.20139,2.87148,6.39239,4.46958,1.22008,1.57144,1.81497,3.54877,1.81497,5.95985Z" style="fill: #404042; stroke-width: 0px;"/>
    <path d="m316.95951,391.11503v-15.06257c0-3.71112-1.08317-5.55275-3.27737-5.55275-3.14288,0-4.57863,2.41108-4.57863,8.47876v12.13657h-9.53648v-37.92662h9.53648v5.3904c0,2.43894-.1357,5.20139-.37923,8.31761h.43375c1.84163-2.84483,4.27936-3.90134,7.61246-3.90134,3.08836,0,5.49944.89416,7.20537,2.68248,1.70714,1.76045,2.57343,4.25271,2.57343,7.47677v17.96071h-9.58979Z" style="fill: #404042; stroke-width: 0px;"/>
    <path d="m359.4066,377.24467c0,4.5241-1.22008,8.04622-3.65781,10.56513-2.41108,2.52012-5.82415,3.7923-10.1859,3.7923-4.1994,0-7.53129-1.30004-10.02354-3.87348-2.4656-2.57343-3.71112-6.06768-3.71112-10.48395,0-4.49745,1.21887-7.99169,3.62994-10.48395,2.43773-2.52012,5.8508-3.76564,10.24042-3.76564,8.15405-.10783,13.81584,5.63514,13.70801,14.24959Zm-17.88075,0c0,4.74098,1.13769,7.28776,4.14487,7.28776,2.95266,0,4.03704-2.54678,4.03704-7.28776s-1.08438-7.15206-4.09035-7.15206c-2.92601,0-4.09156,2.41108-4.09156,7.15206Z" style="fill: #404042; stroke-width: 0px;"/>
    <path d="m381.3983,391.60209c-2.79031,0-4.84881-.78511-7.04301-3.19619h-.43375c.29805,1.92402.43375,3.14288.43375,3.60329v11.10671h-9.53648v-39.63376h7.77603l1.3267,3.52211h.43375c1.76045-2.68126,4.22605-4.00917,7.34107-4.00917,3.06171,0,5.44613,1.27339,7.17992,3.82017,1.76045,2.51891,2.62674,6.01316,2.62674,10.42943,0,4.46958-.92081,7.96504-2.73579,10.53847-1.81497,2.54678-4.25271,3.81895-7.36893,3.81895Zm-3.16954-21.10238c-2.81696,0-3.76564,2.00398-3.87348,5.93198v.75846c0,4.76885,1.24673,6.74617,3.95465,6.74617,2.4656,0,3.49546-1.95067,3.49546-6.79948,0-4.74098-1.00199-6.63713-3.57663-6.63713Z" style="fill: #404042; stroke-width: 0px;"/>
    <path d="m413.49593,391.60209c-2.79031,0-4.84881-.78511-7.04301-3.19619h-.43375c.29805,1.92402.43375,3.14288.43375,3.60329v11.10671h-9.53648v-39.63376h7.77603l1.3267,3.52211h.43375c1.76045-2.68126,4.22605-4.00917,7.34107-4.00917,3.06171,0,5.44613,1.27339,7.17992,3.82017,1.76045,2.51891,2.62674,6.01316,2.62674,10.42943,0,4.46958-.92081,7.96504-2.73579,10.53847-1.81497,2.54678-4.25271,3.81895-7.36893,3.81895Zm-3.16954-21.10238c-2.81696,0-3.76564,2.00398-3.87348,5.93198v.75846c0,4.76885,1.24673,6.74617,3.95465,6.74617,2.4656,0,3.49546-1.95067,3.49546-6.79948,0-4.74098-1.00199-6.63713-3.57663-6.63713Z" style="fill: #404042; stroke-width: 0px;"/>
  </g>
  <g>
    <path d="m170.49682,429.51054h-6.00589l-2.05487,5.20866h-1.14496l5.93925-14.82995h.66153l5.81567,14.82995h-1.15708l-2.05366-5.20866Zm-5.62423-.93172h5.2765l-2.01004-5.32133c-.16841-.41558-.37075-.99957-.6058-1.73985-.18053.63972-.38165,1.22371-.59489,1.75076l-2.06577,5.31043Z" style="fill: #404042; stroke-width: 0px;"/>
    <path d="m189.93084,430.91357c0,1.22371-.46041,2.20026-1.37032,2.92964-.9087.71848-2.1106,1.07832-3.60329,1.07832-1.8077,0-3.18892-.20234-4.15335-.59489v-1.03349c1.06621.4495,2.42441.67365,4.0746.67365,1.21281,0,2.16634-.27988,2.87391-.82994s1.06621-1.28066,1.06621-2.18936c0-.55007-.12358-1.01047-.35863-1.38122-.23626-.37075-.61791-.69546-1.14496-.99957-.52826-.3029-1.31337-.63972-2.33596-.98745-1.5145-.52704-2.55889-1.08923-3.13198-1.68412-.57187-.6058-.86387-1.41393-.86387-2.4135,0-1.10013.42648-1.99792,1.29035-2.69459.86508-.70636,1.98702-1.0553,3.34643-1.0553,1.39091,0,2.69338.27019,3.90619.79723l-.37075.88689c-1.22371-.51614-2.4026-.77421-3.51363-.77421-1.08923,0-1.964.25807-2.61584.76331-.63972.50524-.96564,1.18979-.96564,2.05487,0,.55007.10177.99836.29199,1.34608.20234.34894.52826.67365.97655.95474.46041.28109,1.23583.6058,2.33596.99957,1.15586.39256,2.01973.78511,2.59282,1.15586,1.15586.7524,1.67322,1.6502,1.67322,2.99749Z" style="fill: #404042; stroke-width: 0px;"/>
    <path d="m193.65771,423.7397v7.10602c0,2.21238.89779,3.1659,2.863,3.1659,2.60372,0,3.80563-1.23462,3.80563-4.20909v-6.06283h.98745v10.97949h-.84206l-.17932-1.51571h-.06785c-.70636,1.14496-1.9749,1.71804-3.80563,1.71804-2.50316,0-3.74868-1.33639-3.74868-4.00796v-7.17387h.98745Z" style="fill: #404042; stroke-width: 0px;"/>
    <path d="m211.66568,434.71919l-.25807-1.73985h-.07875c-.55007.70757-1.12194,1.21281-1.70593,1.50359-.57309.29199-1.26854.4386-2.06577.4386-2.15543,0-3.41307-1.17888-3.41307-3.12107,0-2.14453,1.84163-3.37914,5.22077-3.43488l2.08758-.05695v-.72938c0-2.0997-.80814-3.1659-2.69338-3.1659-1.01047,0-2.06577.28109-3.155.85296l-.38165-.87477c1.21281-.56218,2.4026-.84206,3.58148-.84206,2.4135,0,3.59239,1.2116,3.59239,3.86136v7.30835h-.73059Zm-4.04068-.70757c1.16677,0,2.08758-.33682,2.76123-.99836.68455-.67365,1.02138-1.60537,1.02138-2.79637v-1.08801l-1.91917.08966c-1.53873.06664-2.63886.3029-3.30039.71848-.65184.40346-.97655,1.0444-.97655,1.90827,0,1.3582.87477,2.16634,2.4135,2.16634Z" style="fill: #404042; stroke-width: 0px;"/>
    <path d="m222.17386,434.71919v-14.77421h1.03349v13.80857h7.03817v.96564h-8.07166Z" style="fill: #404042; stroke-width: 0px;"/>
    <path d="m241.62968,429.21854c0,1.78468-.43739,3.18771-1.30126,4.19818-.86508.99957-2.06577,1.5048-3.6045,1.5048-2.88481.05573-4.87183-2.28992-4.8161-5.70299,0-1.7968.4386-3.18892,1.30247-4.18728.86508-.99957,2.06577-1.5048,3.58148-1.5048,1.5048,0,2.68248.50524,3.54756,1.52661.86387,1.01047,1.29035,2.4026,1.29035,4.16547Zm-8.66655,0c0,1.50359.32592,2.68248.98866,3.52454.66153.84206,1.60537,1.26854,2.81696,1.26854,1.21281,0,2.14453-.42648,2.80727-1.26854s.99836-2.02094.99836-3.52454c0-1.51571-.33561-2.69459-1.00926-3.52575-.66274-.84085-1.60537-1.25643-2.81817-1.25643-2.42441,0-3.78382,1.72895-3.78382,4.78217Z" style="fill: #404042; stroke-width: 0px;"/>
    <path d="m243.20234,439.6928c-.53916,0-.98866-.08966-1.3582-.25807v-.86508c.46041.13449.89779.20234,1.30126.20234,1.02259,0,1.52782-.59489,1.52782-1.77378v-13.25851h.99836v13.1119c0,1.8077-.88689,2.84119-2.46923,2.84119Zm1.32428-19.00632c0-.63972.21324-.96564.63972-.96564.41558,0,.66274.34773.66274.96564,0,.59489-.24717.97655-.66274.97655-.42648,0-.63972-.32592-.63972-.97655Z" style="fill: #404042; stroke-width: 0px;"/>
    <path d="m256.02224,434.71919l-.25807-1.73985h-.07875c-.55007.70757-1.12194,1.21281-1.70593,1.50359-.57309.29199-1.26854.4386-2.06577.4386-2.15543,0-3.41307-1.17888-3.41307-3.12107,0-2.14453,1.84163-3.37914,5.22077-3.43488l2.08758-.05695v-.72938c0-2.0997-.80814-3.1659-2.69338-3.1659-1.01047,0-2.06577.28109-3.155.85296l-.38165-.87477c1.21281-.56218,2.4026-.84206,3.58148-.84206,2.4135,0,3.59239,1.2116,3.59239,3.86136v7.30835h-.73059Zm-4.04068-.70757c1.16677,0,2.08758-.33682,2.76123-.99836.68455-.67365,1.02138-1.60537,1.02138-2.79637v-1.08801l-1.91917.08966c-1.53873.06664-2.63886.3029-3.30039.71848-.65184.40346-.97655,1.0444-.97655,1.90827,0,1.3582.87477,2.16634,2.4135,2.16634Z" style="fill: #404042; stroke-width: 0px;"/>
    <path d="m278.94808,427.31028c0,2.34565-.58399,4.20909-1.76287,5.56729-1.16677,1.35941-2.78304,2.04396-4.83791,2.04396s-3.67114-.68455-4.85002-2.04396c-1.16677-1.3582-1.75076-3.22164-1.75076-5.5794,0-2.35656.59489-4.20909,1.77378-5.55638s2.79515-2.02094,4.85002-2.02094c2.05366,0,3.66993.67365,4.827,2.03185,1.16677,1.3582,1.75076,3.21073,1.75076,5.5576Zm-12.07962,0c0,2.12151.47252,3.7608,1.41515,4.91666s2.30082,1.72895,4.0637,1.72895c3.54756,0,5.47884-2.36867,5.47884-6.64561,0-2.12272-.47252-3.74989-1.41515-4.88395-.93172-1.13405-2.27901-1.70593-4.04068-1.70593-1.76287,0-3.12107.57187-4.07581,1.71683-.95353,1.14617-1.42605,2.77335-1.42605,4.87304Z" style="fill: #404042; stroke-width: 0px;"/>
    <path d="m289.74826,434.71919v-7.11692c0-2.21238-.899-3.1659-2.863-3.1659-2.61584,0-3.79472,1.24552-3.79472,4.2212v6.06162h-.99836v-10.97949h.84085l.19143,1.5048h.06785c.70636-1.14496,1.9749-1.71804,3.80563-1.71804,2.49226,0,3.73778,1.33639,3.73778,4.00796v7.18477h-.98745Z" style="fill: #404042; stroke-width: 0px;"/>
    <path d="m300.51451,434.71919v-14.77421h1.03349v13.80857h7.03817v.96564h-8.07166Z" style="fill: #404042; stroke-width: 0px;"/>
    <path d="m310.74281,420.68648c0-.63972.21324-.96564.63972-.96564.41558,0,.66274.34773.66274.96564,0,.59489-.24717.97655-.66274.97655-.42648,0-.63972-.32592-.63972-.97655Zm1.14496,14.03272h-.99836v-10.97949h.99836v10.97949Z" style="fill: #404042; stroke-width: 0px;"/>
    <path d="m323.22711,434.71919v-7.11692c0-2.21238-.899-3.1659-2.863-3.1659-2.61584,0-3.79472,1.24552-3.79472,4.2212v6.06162h-.99836v-10.97949h.84085l.19143,1.5048h.06785c.70636-1.14496,1.9749-1.71804,3.80563-1.71804,2.49226,0,3.73778,1.33639,3.73778,4.00796v7.18477h-.98745Z" style="fill: #404042; stroke-width: 0px;"/>
    <path d="m332.20746,434.92153c-1.59325,0-2.83998-.49433-3.73778-1.47088-.88689-.98745-1.33639-2.36867-1.33639-4.13155,0-1.75076.42769-3.15379,1.29156-4.20909s2.02094-1.58356,3.49182-1.58356c1.29035,0,2.31173.4495,3.05322,1.3582.7524.899,1.12194,2.12272,1.12194,3.67114v.80814h-7.90325c.01212,3.02051,1.44907,4.64769,4.01887,4.64769.62882,0,1.17888-.04483,1.65141-.12358.47131-.08966,1.07711-.27988,1.80649-.57187v.9087c-.6167.27019-1.20069.4495-1.72895.55007-.52704.10177-1.10013.1466-1.72895.1466Zm-.29078-10.50818c-2.12272,0-3.4579,1.42605-3.67114,4.0637h6.791c0-1.26854-.27988-2.2669-.82994-2.98537s-1.31337-1.07832-2.28992-1.07832Z" style="fill: #404042; stroke-width: 0px;"/>
  </g>
</svg>