<svg xmlns="http://www.w3.org/2000/svg" viewBox="0 0 38.35 36.36"><defs><style>.cls-1{fill:#0094cd;}.cls-1,.cls-2,.cls-3,.cls-4,.cls-5{fill-rule:evenodd;}.cls-2{fill:#e63280;}.cls-3{fill:#ed7b2c;}.cls-4{fill:#fff;}.cls-5{fill:#63b12f;}</style></defs><g id="Camada_2" data-name="Camada 2"><g id="Camada_1-2" data-name="Camada 1"><path class="cls-1" d="M15.63,0c-4.32,0-9,1-11.79,3.74S0,10.83,0,14.38C0,18.6,3.77,20.86,7.94,22a9.64,9.64,0,0,0-1.67,2.43C5.1,26.83,5,29.74,8.32,29.87v2.82c0,3,5,3.55,6.28,1.7a1.32,1.32,0,0,1,1.85-.22,1.45,1.45,0,0,1,.21.22c1.3,1.85,6.27,1.32,6.27-1.7V29.87c3.32-.13,3.22-3,2.05-5.46A9.88,9.88,0,0,0,23.31,22c4.17-1.12,8-3.38,8-7.59,0-3.54-1-7.93-3.85-10.64S19.94,0,15.63,0M26.06,18.34c.37-.77.1-1.1-.65-1.48-1.83-.94-5.81-1.4-9.78-1.4s-8,.46-9.78,1.4c-.75.39-1,.71-.66,1.48a6.91,6.91,0,0,0,2.39,2.5A14.84,14.84,0,0,0,15.63,23a14.74,14.74,0,0,0,8-2.13,6.7,6.7,0,0,0,2.38-2.49"/><path class="cls-2" d="M17.74.15C13.43.15,8.79,1.18,6,3.89S2.12,11,2.12,14.53c0,4.22,3.77,6.47,7.94,7.6a9.64,9.64,0,0,0-1.67,2.43C7.22,27,7.12,29.88,10.44,30v2.82c0,3,5,3.55,6.27,1.69a1.32,1.32,0,0,1,1.85-.21,2.18,2.18,0,0,1,.22.21c1.29,1.86,6.27,1.33,6.27-1.69V30c3.32-.14,3.22-3,2-5.46a9.88,9.88,0,0,0-1.67-2.44c4.17-1.12,7.95-3.38,7.95-7.59,0-3.55-1-7.94-3.85-10.64S22.06.15,17.74.15M28.18,18.49c.36-.78.09-1.1-.66-1.48-1.83-.94-5.8-1.41-9.78-1.41S9.79,16.07,8,17c-.75.38-1,.71-.65,1.48A6.79,6.79,0,0,0,9.69,21a14.84,14.84,0,0,0,8,2.12A14.74,14.74,0,0,0,25.79,21a6.81,6.81,0,0,0,2.39-2.49"/><path class="cls-3" d="M20.06.57c-4.31,0-8.95,1-11.78,3.74S4.43,11.4,4.43,15c0,4.22,3.78,6.47,7.94,7.6A9.87,9.87,0,0,0,10.71,25c-1.17,2.42-1.27,5.32,2,5.46v2.82c0,3,5,3.55,6.27,1.69a1.32,1.32,0,0,1,1.85-.21,1,1,0,0,1,.21.21c1.3,1.86,6.28,1.33,6.28-1.69V30.44c3.32-.14,3.21-3,2-5.46a9.93,9.93,0,0,0-1.66-2.44c4.16-1.12,7.94-3.38,7.94-7.59,0-3.55-1-7.93-3.85-10.64S24.38.57,20.06.57M30.5,18.91c.36-.78.09-1.1-.66-1.49C28,16.49,24,16,20.06,16s-7.95.47-9.78,1.4c-.75.39-1,.72-.66,1.49A6.91,6.91,0,0,0,12,21.41a14.84,14.84,0,0,0,8,2.12,14.74,14.74,0,0,0,8.05-2.13,6.77,6.77,0,0,0,2.38-2.49"/><path class="cls-4" d="M11.91,16.93a3.19,3.19,0,0,0-.57,1.8,3.56,3.56,0,0,0,2,3c.22.15.45.31.67.48l.66.51.2.07a1.58,1.58,0,0,1,.51.28h.11a1.42,1.42,0,0,1,1.32.94,18.29,18.29,0,0,0,16-3.22,4.09,4.09,0,0,0,1.54-2.2,4.17,4.17,0,0,0-.66-3.43Z"/><path class="cls-5" d="M22.72.9c-4.32,0-9,1-11.78,3.73S7.1,11.73,7.1,15.28c0,4.22,3.77,6.47,7.93,7.6a9.87,9.87,0,0,0-1.66,2.43c-1.17,2.42-1.27,5.32,2.05,5.46v2.82c0,3,5,3.55,6.27,1.69a1.32,1.32,0,0,1,1.85-.21,1.45,1.45,0,0,1,.22.21C25.05,37.14,30,36.61,30,33.59V30.77c3.32-.14,3.22-3,2-5.46a10,10,0,0,0-1.67-2.44c4.16-1.12,7.94-3.38,7.94-7.59,0-3.55-1-7.93-3.84-10.64S27,.9,22.72.9M33.16,19.23c.36-.77.09-1.09-.66-1.48-1.83-.93-5.81-1.4-9.78-1.4s-7.95.47-9.78,1.4c-.76.39-1,.71-.66,1.49a6.81,6.81,0,0,0,2.39,2.49,14.76,14.76,0,0,0,8,2.13,14.74,14.74,0,0,0,8.05-2.13,6.8,6.8,0,0,0,2.38-2.5"/></g></g></svg>